 <svg  version="1.0" xmlns="http://www.w3.org/2000/svg"  width="300.000000pt" height="300.000000pt" viewBox="0 0 300.000000 300.000000"  preserveAspectRatio="xMidYMid meet">  <g transform="translate(0.000000,300.000000) scale(0.100000,-0.100000)" fill="#0078b9" stroke="none"> <path d="M817 2982 c-15 -17 -17 -57 -17 -375 l0 -357 -383 0 c-359 0 -385 -1 -400 -18 -16 -17 -17 -96 -17 -934 0 -1046 -10 -948 93 -948 l57 0 0 -158 c0 -141 2 -161 18 -175 17 -16 124 -17 1334 -17 1261 0 1316 1 1331 18 14 16 17 43 17 175 l0 157 58 0 c101 0 92 -94 92 952 0 874 -1 916 -18 931 -17 15 -59 17 -400 17 l-382 0 0 358 c0 335 -1 360 -18 375 -17 16 -79 17 -684 17 -631 0 -666 -1 -681 -18z m1283 -1010 l0 -929 -30 5 c-81 12 -184 -56 -208 -136 -18 -59 -15 -93 13 -148 l25 -49 -47 -42 c-26 -24 -49 -43 -52 -43 -3 0 -16 15 -28 34 -12 19 -40 47 -62 62 -44 32 -49 45 -25 65 8 7 24 29 34 50 60 116 17 259 -97 326 -41 24 -59 28 -123 28 -64 0 -82 -4 -123 -28 -114 -67 -157 -210 -97 -326 10 -21 26 -43 34 -50 24 -20 19 -33 -25 -65 -22 -15 -50 -43 -62 -62 -12 -19 -25 -34 -28 -34 -3 0 -27 20 -54 45 -45 41 -48 46 -33 62 44 51 48 154 8 218 -36 58 -91 89 -161 89 l-59 1 0 928 0 927 600 0 600 0 0 -928z m-1300 -404 l0 -583 -25 -49 c-32 -62 -32 -110 0 -171 l24 -48 -53 -51 c-33 -32 -59 -69 -71 -98 l-18 -48 -28 17 c-16 10 -29 20 -29 23 0 3 11 27 25 54 31 62 31 107 1 172 -70 150 -276 150 -351 1 -31 -64 -32 -110 -1 -172 l25 -48 -59 -58 c-52 -53 -63 -59 -99 -59 l-41 0 0 850 0 850 350 0 350 0 0 -582z m2100 -268 l0 -850 -41 0 c-36 0 -47 6 -99 59 l-59 58 25 48 c31 62 30 108 -1 172 -57 114 -191 145 -299 70 -35 -25 -76 -109 -76 -158 0 -19 11 -58 25 -85 14 -27 25 -51 25 -54 0 -3 -13 -13 -29 -23 l-28 -17 -18 48 c-12 29 -38 66 -71 98 l-53 51 24 48 c32 61 32 109 0 171 l-25 49 0 583 0 582 350 0 350 0 0 -850z m-1334 -216 c106 -50 110 -203 8 -261 -105 -60 -232 19 -221 138 9 108 116 169 213 123z m-567 -148 c67 -35 65 -143 -4 -174 -91 -41 -179 51 -131 137 26 47 84 63 135 37z m1100 0 c67 -35 65 -143 -4 -174 -51 -23 -107 -7 -131 39 -47 91 44 182 135 135z m-1600 -150 c47 -25 63 -83 37 -135 -35 -66 -137 -66 -172 0 -47 91 44 182 135 135z m2100 0 c47 -25 63 -83 37 -135 -35 -66 -137 -66 -172 0 -47 91 44 182 135 135z m-983 -117 c55 -28 108 -91 124 -147 5 -20 10 -124 10 -229 l0 -193 -251 0 -250 0 3 213 c3 211 3 212 31 259 69 118 212 159 333 97z m-552 -56 c22 -15 50 -48 63 -72 22 -42 23 -54 23 -243 l0 -198 -200 0 -200 0 0 197 c0 179 2 200 21 240 22 46 70 89 116 103 50 17 133 4 177 -27z m1100 0 c22 -15 50 -48 63 -72 22 -42 23 -54 23 -243 l0 -198 -200 0 -200 0 0 197 c0 179 2 200 21 240 22 46 70 89 116 103 50 17 133 4 177 -27z m-1602 -149 c23 -16 52 -49 65 -73 20 -39 23 -58 23 -168 l0 -123 -201 0 -201 0 4 134 c3 131 4 136 33 177 65 92 188 116 277 53z m2100 0 c23 -16 52 -49 65 -73 20 -39 23 -58 23 -168 l0 -123 -201 0 -201 0 4 134 c3 131 4 136 33 177 65 92 188 116 277 53z"/> <path d="M1167 2782 c-15 -16 -17 -48 -17 -234 0 -195 2 -216 18 -231 16 -15 55 -17 334 -17 292 0 316 1 331 18 15 16 17 48 17 235 0 183 -2 218 -16 231 -13 14 -58 16 -333 16 -295 0 -319 -1 -334 -18z m583 -232 l0 -150 -250 0 -250 0 0 150 0 150 250 0 250 0 0 -150z"/> <path d="M1250 2150 l0 -50 50 0 50 0 0 50 0 50 -50 0 -50 0 0 -50z"/> <path d="M1450 2150 l0 -50 50 0 50 0 0 50 0 50 -50 0 -50 0 0 -50z"/> <path d="M1650 2150 l0 -50 50 0 50 0 0 50 0 50 -50 0 -50 0 0 -50z"/> <path d="M1050 1950 l0 -50 50 0 50 0 0 50 0 50 -50 0 -50 0 0 -50z"/> <path d="M1250 1950 l0 -50 50 0 50 0 0 50 0 50 -50 0 -50 0 0 -50z"/> <path d="M1450 1950 l0 -50 50 0 50 0 0 50 0 50 -50 0 -50 0 0 -50z"/> <path d="M1650 1950 l0 -50 50 0 50 0 0 50 0 50 -50 0 -50 0 0 -50z"/> <path d="M1850 1950 l0 -50 50 0 50 0 0 50 0 50 -50 0 -50 0 0 -50z"/> <path d="M1050 1750 l0 -50 50 0 50 0 0 50 0 50 -50 0 -50 0 0 -50z"/> <path d="M1250 1750 l0 -50 50 0 50 0 0 50 0 50 -50 0 -50 0 0 -50z"/> <path d="M1450 1750 l0 -50 50 0 50 0 0 50 0 50 -50 0 -50 0 0 -50z"/> <path d="M1650 1750 l0 -50 50 0 50 0 0 50 0 50 -50 0 -50 0 0 -50z"/> <path d="M1850 1750 l0 -50 50 0 50 0 0 50 0 50 -50 0 -50 0 0 -50z"/> <path d="M1050 1550 l0 -50 50 0 50 0 0 50 0 50 -50 0 -50 0 0 -50z"/> <path d="M1250 1550 l0 -50 50 0 50 0 0 50 0 50 -50 0 -50 0 0 -50z"/> <path d="M1450 1550 l0 -50 50 0 50 0 0 50 0 50 -50 0 -50 0 0 -50z"/> <path d="M1650 1550 l0 -50 50 0 50 0 0 50 0 50 -50 0 -50 0 0 -50z"/> <path d="M1850 1550 l0 -50 50 0 50 0 0 50 0 50 -50 0 -50 0 0 -50z"/> <path d="M1050 1350 l0 -50 50 0 50 0 0 50 0 50 -50 0 -50 0 0 -50z"/> <path d="M1250 1350 l0 -50 50 0 50 0 0 50 0 50 -50 0 -50 0 0 -50z"/> <path d="M1450 1350 l0 -50 50 0 50 0 0 50 0 50 -50 0 -50 0 0 -50z"/> <path d="M1650 1350 l0 -50 50 0 50 0 0 50 0 50 -50 0 -50 0 0 -50z"/> <path d="M1850 1350 l0 -50 50 0 50 0 0 50 0 50 -50 0 -50 0 0 -50z"/> <path d="M250 1450 l0 -400 50 0 50 0 0 400 0 400 -50 0 -50 0 0 -400z"/> <path d="M550 1450 l0 -400 50 0 50 0 0 400 0 400 -50 0 -50 0 0 -400z"/> <path d="M2350 1450 l0 -400 50 0 50 0 0 400 0 400 -50 0 -50 0 0 -400z"/> <path d="M2650 1450 l0 -400 50 0 50 0 0 400 0 400 -50 0 -50 0 0 -400z"/> </g> </svg> 