 <svg  version="1.0" xmlns="http://www.w3.org/2000/svg"  width="300.000000pt" height="300.000000pt" viewBox="0 0 300.000000 300.000000"  preserveAspectRatio="xMidYMid meet">  <g transform="translate(0.000000,300.000000) scale(0.100000,-0.100000)" fill="#0071b8" stroke="none"> <path d="M2210 2574 c-213 -45 -391 -220 -447 -437 -21 -85 -13 -249 17 -334 57 -163 200 -306 363 -363 78 -27 237 -38 320 -20 160 33 328 164 401 311 221 449 -166 949 -654 843z m231 -38 c223 -47 389 -208 434 -423 19 -86 18 -140 0 -228 -21 -100 -67 -186 -141 -265 -294 -311 -819 -175 -929 240 -18 69 -19 209 -1 275 31 116 105 227 199 298 70 53 116 75 198 96 92 23 151 25 240 7z"/> <path d="M2110 2292 c-47 -23 -80 -75 -80 -124 0 -46 11 -70 56 -121 38 -42 42 -58 17 -78 -65 -54 -90 -137 -58 -198 51 -100 166 -110 249 -22 17 17 36 31 43 31 7 0 30 -15 50 -34 51 -45 75 -56 120 -56 52 0 99 31 124 84 29 59 20 101 -37 172 l-45 55 39 43 c75 82 78 163 7 225 -66 58 -125 54 -204 -14 l-53 -45 -40 36 c-71 63 -126 77 -188 46z m167 -84 l64 -63 42 46 c86 92 135 103 193 45 58 -58 47 -107 -46 -193 l-45 -42 57 -58 c63 -64 78 -104 58 -152 -16 -40 -51 -61 -101 -61 -36 0 -47 6 -103 60 l-63 60 -45 -49 c-54 -59 -75 -71 -123 -71 -55 0 -95 44 -95 103 0 42 4 50 59 104 l59 58 -59 62 c-53 55 -59 66 -59 103 0 51 12 75 48 94 56 31 88 21 159 -46z"/> <path d="M293 2042 c-66 -26 -130 -77 -164 -129 -60 -96 -60 -97 -57 -699 l3 -549 28 -56 c32 -67 109 -142 175 -172 l47 -22 900 0 900 0 57 27 c69 32 135 96 168 163 25 50 25 52 28 380 3 375 8 355 -82 355 -306 1 -596 285 -614 600 -2 47 -9 93 -14 103 -8 16 -50 17 -671 16 -598 0 -666 -2 -704 -17z m1341 -44 c3 -13 7 -52 10 -88 10 -137 87 -293 200 -406 115 -115 254 -184 408 -204 39 -4 75 -13 80 -18 5 -5 8 -134 6 -313 -3 -293 -4 -305 -26 -346 -35 -66 -79 -110 -140 -140 l-57 -28 -885 0 c-976 0 -911 -4 -1005 65 -35 26 -59 55 -80 96 l-30 59 0 565 0 565 27 51 c38 72 109 131 188 155 14 4 312 8 662 8 l638 1 4 -22z"/> <path d="M375 1856 c-38 -17 -90 -72 -104 -109 -16 -42 -13 -98 5 -118 15 -17 15 -20 0 -43 -31 -48 -9 -143 45 -193 58 -53 186 -71 247 -36 29 17 31 17 50 0 13 -12 36 -17 84 -17 81 0 140 29 182 88 35 50 47 130 22 151 -20 17 -20 35 -1 51 39 32 0 150 -67 204 -33 26 -48 30 -118 34 -64 4 -85 1 -106 -13 -23 -15 -27 -15 -43 -1 -22 20 -152 21 -196 2z m185 -100 c0 -77 12 -102 44 -90 21 8 29 41 24 109 l-3 55 76 0 c62 0 82 -4 110 -23 41 -27 69 -79 69 -129 l0 -37 -76 -3 c-59 -2 -79 -7 -87 -20 -21 -32 8 -48 89 -48 l74 0 0 -35 c0 -94 -74 -155 -188 -155 l-61 0 -3 76 c-3 81 -17 104 -52 91 -13 -5 -16 -22 -16 -87 l0 -80 -68 0 c-119 0 -192 58 -192 152 l0 38 75 0 c65 0 76 3 85 21 20 36 -3 49 -86 49 l-74 0 0 43 c0 51 28 100 72 127 26 15 51 20 111 20 l77 0 0 -74z"/> <path d="M314 1181 c-63 -38 -69 -138 -13 -185 29 -25 36 -26 154 -26 l123 0 31 35 c25 29 31 45 31 81 0 39 -5 51 -34 80 l-34 34 -114 0 c-94 0 -118 -3 -144 -19z m268 -38 c12 -11 18 -30 18 -59 0 -68 -12 -74 -150 -74 -111 0 -120 1 -134 22 -22 31 -20 84 4 108 18 18 33 20 132 20 90 0 115 -3 130 -17z"/> <path d="M835 1191 c-36 -15 -58 -49 -63 -100 -4 -45 -2 -52 29 -84 37 -39 59 -43 211 -39 55 2 72 6 97 28 56 47 50 147 -13 185 -25 16 -49 19 -136 18 -58 0 -114 -4 -125 -8z m259 -53 c21 -29 20 -87 -1 -110 -14 -15 -32 -18 -134 -18 -136 0 -149 6 -149 72 0 70 15 78 151 78 110 0 119 -1 133 -22z"/> <path d="M1344 1166 c-30 -30 -34 -40 -34 -86 0 -44 4 -56 29 -81 29 -29 29 -29 156 -29 127 0 127 0 156 29 25 25 29 37 29 81 0 46 -4 56 -34 86 l-34 34 -117 0 -117 0 -34 -34z m280 -22 c19 -19 22 -104 4 -122 -18 -18 -252 -17 -267 1 -28 35 -21 107 13 129 6 4 61 8 123 8 88 0 115 -3 127 -16z"/> <path d="M1864 1181 c-61 -37 -68 -139 -14 -185 34 -28 125 -41 221 -30 88 10 119 40 119 116 -1 96 -36 118 -187 118 -89 0 -114 -3 -139 -19z m276 -41 c24 -24 26 -77 4 -108 -14 -21 -22 -22 -139 -22 -117 0 -125 1 -139 22 -22 31 -20 84 4 108 18 18 33 20 135 20 102 0 117 -2 135 -20z"/> <path d="M294 796 c-28 -28 -34 -41 -34 -78 0 -43 18 -80 50 -105 11 -9 111 -12 392 -13 l378 0 30 28 c59 52 48 152 -20 187 -24 13 -87 15 -396 15 l-366 0 -34 -34z m800 -28 c21 -29 20 -87 -1 -110 -15 -17 -40 -18 -389 -18 -419 0 -404 -3 -404 72 0 81 -16 78 406 78 l373 0 15 -22z"/> </g> </svg> 