<?xml version="1.0" standalone="no"?>
<!DOCTYPE svg PUBLIC "-//W3C//DTD SVG 20010904//EN"
 "http://www.w3.org/TR/2001/REC-SVG-20010904/DTD/svg10.dtd">
<svg version="1.0" xmlns="http://www.w3.org/2000/svg"
 width="300.000000pt" height="300.000000pt" viewBox="0 0 300.000000 300.000000"
 preserveAspectRatio="xMidYMid meet">
<metadata>
Created by potrace 1.10, written by Peter Selinger 2001-2011
</metadata>
<g transform="translate(0.000000,300.000000) scale(0.050000,-0.050000)"
fill="#0077b3" stroke="none">
<path d="M2700 5702 l-90 -12 7 -80 c10 -117 0 -114 298 -78 l85 10 0 89 0 89
-105 -3 c-58 -2 -145 -8 -195 -15z"/>
<path d="M4656 5682 c-29 -24 -59 -69 -66 -101 -16 -76 -134 -151 -190 -121
-187 100 -467 -323 -310 -468 36 -34 50 -67 50 -121 0 -56 -13 -85 -50 -115
-73 -57 -67 -153 19 -294 103 -170 131 -190 251 -176 123 15 211 -28 228 -110
41 -204 572 -197 572 7 0 64 112 116 220 103 126 -15 160 8 257 172 104 174
104 244 0 318 -60 42 -48 150 23 221 139 139 -87 521 -278 470 -102 -27 -222
28 -222 101 0 141 -364 223 -504 114z m331 -221 c38 -117 280 -233 403 -194
31 10 49 -4 83 -63 l43 -76 -48 -46 c-73 -70 -72 -340 1 -413 l49 -49 -40 -70
c-39 -65 -46 -68 -125 -58 -138 18 -373 -130 -373 -236 0 -77 -187 -49 -217
33 -42 117 -306 243 -401 192 -51 -27 -145 133 -98 167 94 70 109 329 24 430
l-51 62 44 71 c24 39 54 68 66 63 91 -34 113 -31 225 28 151 80 183 109 199
181 21 95 184 78 216 -22z"/>
<path d="M4710 5208 c-431 -224 -120 -871 322 -670 276 125 279 532 6 673 -74
38 -253 37 -328 -3z m292 -206 c101 -102 64 -257 -71 -302 -145 -47 -283 91
-230 232 50 136 200 170 301 70z"/>
<path d="M3372 5653 c-33 -125 -20 -144 113 -170 69 -14 148 -29 177 -35 45
-10 54 -4 64 45 6 31 17 72 24 90 12 32 3 35 -333 105 -21 5 -38 -9 -45 -35z"/>
<path d="M2041 5543 c-168 -62 -175 -71 -133 -172 l30 -72 76 33 c42 18 119
47 172 64 71 24 92 40 83 63 -6 17 -17 56 -23 86 -13 67 -18 67 -205 -2z"/>
<path d="M1400 5198 c-195 -146 -193 -142 -125 -219 l59 -66 143 106 c79 59
143 110 143 114 0 14 -90 147 -100 147 -5 0 -59 -37 -120 -82z"/>
<path d="M822 4625 c-120 -159 -118 -151 -42 -205 78 -56 83 -53 199 100 l98
130 -52 55 c-74 78 -89 72 -203 -80z"/>
<path d="M2811 4298 c-644 -94 -1113 -635 -1118 -1288 -7 -1048 1146 -1677
2024 -1104 l149 97 131 -131 131 -131 -44 -47 c-24 -25 -44 -64 -44 -85 0 -51
837 -889 887 -889 49 0 331 274 346 336 11 42 -42 103 -415 476 -446 446 -469
462 -552 384 l-47 -44 -132 132 -132 131 64 93 c570 828 96 1934 -887 2070
-173 24 -192 24 -361 0z m460 -208 c847 -216 1138 -1266 521 -1879 -710 -705
-1912 -209 -1912 789 0 725 693 1267 1391 1090z m1714 -3075 l-65 -64 -330
329 -329 329 64 66 64 66 330 -330 331 -331 -65 -65z"/>
<path d="M2849 3902 c-217 -98 -288 -366 -149 -562 l39 -55 -75 -12 c-50 -8
-99 -36 -145 -84 l-69 -71 0 -413 0 -414 50 -25 c71 -36 929 -36 1000 0 l50
25 0 413 c0 473 -45 576 -250 576 l-43 0 41 57 c223 314 -102 723 -449 565z
m282 -211 c69 -70 68 -187 -4 -258 -116 -116 -307 -35 -307 131 0 108 69 176
180 176 60 0 95 -13 131 -49z m209 -631 c36 -36 40 -67 40 -330 l0 -290 -380
0 -380 0 0 290 c0 388 -18 370 380 370 273 0 304 -4 340 -40z"/>
<path d="M493 4055 c-109 -263 -108 -304 7 -324 l70 -13 55 148 c69 185 69
180 -16 220 -90 43 -84 45 -116 -31z"/>
<path d="M5526 3753 c-92 -33 -92 -34 -54 -211 34 -160 36 -162 96 -162 118 1
125 18 86 203 -41 194 -44 199 -128 170z"/>
<path d="M293 3257 c-27 -253 -25 -257 75 -257 99 0 104 12 116 249 4 91 0
101 -45 113 -122 34 -132 27 -146 -105z"/>
<path d="M5532 2935 c-6 -47 -14 -132 -18 -189 l-8 -104 88 -14 c111 -16 102
-30 118 198 l14 194 -92 0 -92 0 -10 -85z"/>
<path d="M395 2624 c-89 -8 -92 -23 -41 -240 l34 -147 71 13 c104 19 108 31
70 203 -39 183 -37 179 -134 171z"/>
<path d="M5367 2115 l-62 -165 80 -37 c95 -44 97 -42 163 143 65 182 65 176
-11 202 -99 35 -103 31 -170 -143z"/>
<path d="M881 1907 c-22 -29 -41 -69 -41 -90 0 -64 -112 -116 -220 -103 -125
15 -160 -8 -257 -169 -104 -173 -104 -247 0 -321 60 -42 48 -150 -23 -221
-139 -139 87 -521 278 -470 102 27 222 -28 222 -101 0 -207 525 -219 570 -13
16 76 134 151 190 121 186 -99 465 317 310 463 -69 66 -69 186 0 241 73 57 67
153 -19 294 -103 170 -131 190 -251 176 -123 -15 -211 28 -228 110 -29 147
-430 211 -531 83z m356 -196 c42 -117 306 -243 401 -192 51 27 145 -133 98
-167 -94 -70 -109 -329 -24 -430 l51 -62 -44 -71 c-24 -39 -54 -68 -66 -63
-91 34 -113 31 -225 -28 -151 -80 -183 -109 -199 -181 -21 -95 -184 -78 -216
22 -38 117 -280 233 -403 194 -31 -10 -49 4 -83 63 l-43 76 48 46 c73 70 72
340 -1 413 l-49 49 40 70 c39 65 46 68 125 58 138 -18 373 130 373 236 0 77
187 49 217 -33z"/>
<path d="M968 1462 c-239 -109 -284 -432 -86 -611 182 -165 479 -105 580 117
145 318 -176 639 -494 494z m279 -199 c129 -115 46 -323 -128 -323 -129 0
-221 165 -157 283 48 91 204 113 285 40z"/>
<path d="M3910 638 c-77 -31 -151 -57 -165 -57 -14 -1 -25 -9 -25 -18 0 -19
42 -148 52 -161 13 -15 333 107 342 130 5 14 -8 56 -28 94 l-36 69 -140 -57z"/>
<path d="M2262 480 c-30 -100 -42 -87 122 -127 199 -49 229 -45 244 29 21 106
17 110 -113 135 -69 14 -148 29 -176 35 -46 10 -54 3 -77 -72z"/>
<path d="M3230 486 c-223 -14 -230 -17 -230 -117 0 -101 4 -103 257 -76 116
12 123 16 123 65 -1 67 -21 143 -37 138 -7 -2 -58 -6 -113 -10z"/>
</g>
</svg>
