 <svg  version="1.0" xmlns="http://www.w3.org/2000/svg"  width="300.000000pt" height="300.000000pt" viewBox="0 0 300.000000 300.000000"  preserveAspectRatio="xMidYMid meet">  <g transform="translate(0.000000,300.000000) scale(0.100000,-0.100000)" fill="#0078b9" stroke="none"> <path d="M72 2980 c-18 -11 -41 -34 -52 -52 -20 -33 -20 -54 -20 -1428 0 -1374 0 -1395 20 -1428 11 -18 34 -41 52 -52 32 -19 52 -20 659 -20 l625 0 307 309 307 309 0 66 0 66 98 0 c190 0 288 31 388 122 49 46 62 52 109 56 l52 4 7 -55 c11 -87 33 -101 164 -105 128 -5 176 7 197 48 22 42 22 847 0 889 -22 44 -59 53 -188 49 -105 -3 -118 -5 -140 -26 -16 -15 -27 -40 -32 -68 -5 -36 -11 -45 -31 -50 -49 -12 -94 3 -145 51 -27 26 -80 61 -117 78 l-67 32 -321 0 -321 0 -36 -28 c-46 -35 -58 -57 -59 -109 0 -46 22 -81 72 -115 31 -22 42 -23 224 -23 l192 0 67 -120 c57 -101 72 -120 92 -120 25 0 55 24 55 43 0 7 -35 73 -78 147 l-78 135 -210 5 c-219 5 -244 10 -244 50 0 42 18 45 324 45 l291 0 55 -26 c30 -14 78 -47 106 -72 63 -57 88 -67 165 -67 l59 0 0 -250 0 -250 -54 0 c-73 0 -98 -11 -169 -75 -87 -79 -136 -95 -297 -95 l-130 0 -2 277 -3 278 -45 0 -45 0 -3 -352 -2 -353 -231 0 c-340 0 -329 12 -329 -365 l0 -245 -590 0 c-577 0 -590 0 -610 20 -20 20 -20 33 -20 1390 0 1357 0 1370 20 1390 20 20 33 20 873 20 667 0 857 -3 870 -12 15 -12 17 -57 19 -518 l3 -505 48 -3 47 -3 0 508 c0 566 1 553 -69 600 l-34 23 -881 0 c-861 0 -882 -1 -914 -20z m2838 -1715 l0 -395 -95 0 -95 0 0 395 0 395 95 0 95 0 0 -395z m-1161 -732 c-41 -43 -134 -139 -207 -213 l-132 -135 0 201 c0 142 3 203 12 212 9 9 69 12 207 12 l196 0 -76 -77z"/> <path d="M570 2721 c-14 -27 -13 -37 6 -55 13 -14 64 -16 407 -16 216 0 398 4 406 9 7 5 14 21 14 36 0 15 -7 31 -14 36 -8 5 -193 9 -411 9 -383 0 -398 -1 -408 -19z"/> <path d="M289 2482 c-71 -37 -102 -93 -97 -174 12 -177 238 -237 338 -91 20 30 25 49 25 103 0 84 -27 129 -99 165 -64 32 -101 31 -167 -3z m153 -102 c26 -27 30 -36 25 -68 -18 -108 -166 -108 -184 0 -5 32 -1 41 25 68 23 22 40 30 67 30 27 0 44 -8 67 -30z"/> <path d="M716 2444 c-19 -18 -20 -28 -6 -55 10 -18 27 -19 503 -19 519 0 517 0 517 45 0 45 2 45 -511 45 -430 0 -489 -2 -503 -16z"/> <path d="M708 2245 c-9 -21 -8 -28 7 -45 18 -19 30 -20 505 -20 512 0 510 0 510 45 0 45 2 45 -517 45 l-493 0 -12 -25z"/> <path d="M318 2031 c-47 -15 -85 -49 -107 -94 -63 -129 23 -270 164 -270 141 0 227 141 164 271 -12 24 -37 54 -59 68 -41 27 -118 39 -162 25z m128 -124 c21 -25 25 -38 20 -66 -17 -106 -165 -106 -182 0 -5 28 -1 41 20 66 42 50 100 50 142 0z"/> <path d="M716 1974 c-9 -8 -16 -22 -16 -29 0 -7 7 -21 16 -29 14 -14 73 -16 503 -16 513 0 511 0 511 45 0 45 2 45 -511 45 -430 0 -489 -2 -503 -16z"/> <path d="M710 1779 c-9 -16 -8 -26 5 -45 l15 -24 360 0 c305 0 360 2 360 14 0 8 12 28 26 45 l26 31 -391 0 c-384 0 -390 0 -401 -21z"/> <path d="M310 1559 c-115 -48 -158 -194 -83 -287 105 -132 317 -74 331 91 9 112 -63 197 -171 204 -29 1 -63 -2 -77 -8z m134 -121 c24 -26 27 -37 22 -67 -11 -72 -93 -105 -149 -61 -73 58 -18 181 73 164 14 -3 38 -19 54 -36z"/> <path d="M708 1495 c-9 -21 -8 -28 7 -45 18 -19 31 -20 433 -20 l416 0 -33 24 c-18 14 -40 34 -48 45 -14 21 -22 21 -389 21 l-374 0 -12 -25z"/> <path d="M720 1320 c-11 -11 -20 -24 -20 -30 0 -5 9 -19 20 -30 19 -19 33 -20 496 -20 308 0 482 4 495 10 12 7 19 21 19 40 0 19 -7 33 -19 40 -13 6 -187 10 -495 10 -463 0 -477 -1 -496 -20z"/> <path d="M300 1084 c-45 -20 -68 -41 -91 -86 -40 -78 -15 -180 58 -235 32 -25 45 -28 108 -28 63 0 76 3 108 28 92 70 102 215 20 289 -50 46 -139 60 -203 32z m119 -89 c74 -38 58 -150 -24 -171 -52 -13 -116 38 -115 93 1 43 50 92 93 93 10 0 31 -7 46 -15z"/> <path d="M710 1029 c-9 -16 -8 -26 5 -45 l15 -24 489 0 c533 0 516 -2 509 57 l-3 28 -502 3 c-499 2 -502 2 -513 -19z"/> <path d="M720 850 c-11 -11 -20 -24 -20 -30 0 -5 9 -19 20 -30 19 -19 33 -20 496 -20 308 0 482 4 495 10 12 7 19 21 19 40 0 19 -7 33 -19 40 -13 6 -187 10 -495 10 -463 0 -477 -1 -496 -20z"/> <path d="M202 338 c-15 -15 -15 -51 0 -66 9 -9 104 -12 365 -12 338 0 353 1 363 19 14 27 13 37 -6 55 -13 14 -60 16 -363 16 -256 0 -350 -3 -359 -12z"/> </g> </svg> 