<!DOCTYPE svg PUBLIC "-//W3C//DTD SVG 1.1//EN" "http://www.w3.org/Graphics/SVG/1.1/DTD/svg11.dtd">
<!-- Uploaded to: SVG Repo, www.svgrepo.com, Transformed by: SVG Repo Mixer Tools -->
<svg fill="#0078b9" width="800px" height="800px" viewBox="0 0 1024 1024" xmlns="http://www.w3.org/2000/svg" stroke="#0078b9">
<g id="SVGRepo_bgCarrier" stroke-width="0"/>
<g id="SVGRepo_tracerCarrier" stroke-linecap="round" stroke-linejoin="round"/>
<g id="SVGRepo_iconCarrier">
<path d="M263.508 346.359c0-11.782 9.551-21.333 21.333-21.333h303.012c11.78 0 21.333 9.551 21.333 21.333s-9.553 21.333-21.333 21.333H284.841c-11.782 0-21.333-9.551-21.333-21.333zm21.333 92.937c-11.782 0-21.333 9.553-21.333 21.333 0 11.785 9.551 21.333 21.333 21.333h303.012c11.78 0 21.333-9.549 21.333-21.333 0-11.78-9.553-21.333-21.333-21.333H284.841zm-21.333 135.599c0-11.78 9.551-21.333 21.333-21.333h303.012c11.78 0 21.333 9.553 21.333 21.333 0 11.785-9.553 21.333-21.333 21.333H284.841c-11.782 0-21.333-9.549-21.333-21.333zm21.333 92.535c-11.782 0-21.333 9.553-21.333 21.333 0 11.785 9.551 21.333 21.333 21.333h303.012c11.78 0 21.333-9.549 21.333-21.333 0-11.78-9.553-21.333-21.333-21.333H284.841z"/>
<path d="M325.731 43.151h15.654c1.387-.283 2.823-.432 4.294-.432s2.907.149 4.294.432H654.22c37.875 0 68.74 30.919 68.74 68.78v649.225c0 37.858-30.865 68.779-68.74 68.779H218.073c-37.873 0-68.741-30.921-68.741-68.779V212.754c0-.922.058-1.831.172-2.722.466-11.074 4.843-22.22 13.986-31.371L285.747 56.306c11.501-11.236 26.231-15.109 39.984-13.155zM193.673 208.819L315.626 86.765c.943-.899 1.808-1.238 2.577-1.366.895-.149 1.968-.049 3.028.39 1.055.437 1.833 1.1 2.312 1.78.366.52.73 1.278.803 2.512v70.051c0 .256.004.511.013.765v38.38c0 9.981-8.243 18.205-18.173 18.205H197.149c-1.328 0-2.141-.36-2.728-.777-.686-.486-1.363-1.285-1.806-2.354s-.529-2.115-.384-2.956c.124-.722.455-1.588 1.441-2.575zm173.34-123.001v3.525c.009.399.013.8.013 1.202v108.731c0 33.512-27.312 60.872-60.839 60.872L192 260.151v501.005c0 14.327 11.799 26.112 26.074 26.112h436.147c14.276 0 26.074-11.785 26.074-26.112V111.931c0-14.33-11.797-26.113-26.074-26.113H367.013z"/>
<path d="M777.485 128.521c-11.785 0-21.333 9.551-21.333 21.333s9.549 21.333 21.333 21.333h28.442c14.276 0 26.074 11.783 26.074 26.113v715.254c0 14.332-11.797 26.112-26.074 26.112H369.78c-14.275 0-26.074-11.785-26.074-26.112v-28.075c0-11.78-9.551-21.333-21.333-21.333s-21.333 9.553-21.333 21.333v28.075c0 37.862 30.868 68.779 68.741 68.779h436.147c37.875 0 68.74-30.916 68.74-68.779V197.3c0-37.861-30.865-68.78-68.74-68.78h-28.442z"/>
</g>
</svg>