 <svg  version="1.0" xmlns="http://www.w3.org/2000/svg"  width="300.000000pt" height="300.000000pt" viewBox="0 0 300.000000 300.000000"  preserveAspectRatio="xMidYMid meet">  <g transform="translate(0.000000,300.000000) scale(0.100000,-0.100000)" fill="#0078b9" stroke="none"> <path d="M1413 2943 c-38 -32 -185 -157 -328 -278 -143 -122 -266 -225 -272 -229 -10 -6 -13 20 -13 113 0 114 1 121 20 121 27 0 60 35 60 63 0 13 -8 31 -18 40 -16 15 -51 17 -290 17 -259 0 -273 -1 -292 -20 -11 -11 -20 -29 -20 -39 0 -21 44 -61 66 -61 12 0 14 -56 14 -319 l0 -319 -168 -143 -167 -144 -3 -154 c-3 -194 -5 -191 120 -191 l88 0 0 -640 0 -640 -40 0 c-69 0 -103 -57 -60 -100 20 -20 33 -20 1390 -20 1357 0 1370 0 1390 20 43 43 9 100 -60 100 l-40 0 0 640 0 640 88 0 c124 0 122 -3 122 187 l0 151 -72 64 c-40 36 -226 194 -413 353 -187 159 -383 325 -435 370 -184 157 -495 421 -528 448 -19 15 -42 27 -53 27 -10 0 -49 -26 -86 -57z m582 -499 c270 -230 579 -493 688 -586 l197 -168 0 -85 0 -85 -79 0 c-64 0 -83 -4 -105 -21 l-26 -20 0 -680 0 -679 -85 0 -85 0 0 74 c0 107 -18 222 -45 289 -46 111 -140 218 -250 282 -16 10 -15 14 14 45 58 64 76 114 76 215 0 74 -4 98 -23 137 -98 199 -363 246 -515 92 -22 -22 -51 -61 -65 -89 -23 -43 -27 -62 -27 -140 0 -99 18 -150 77 -211 l29 -31 -67 -39 c-69 -40 -140 -111 -177 -176 -12 -21 -24 -38 -27 -38 -3 0 -15 17 -27 38 -37 65 -108 136 -177 176 l-67 39 29 31 c59 61 77 112 77 211 0 79 -4 97 -27 142 -105 199 -359 240 -515 84 -68 -68 -88 -120 -88 -226 0 -101 18 -151 76 -215 29 -31 30 -35 14 -45 -106 -62 -200 -166 -246 -271 -29 -67 -48 -181 -49 -286 l0 -88 -85 0 -85 0 0 679 0 680 -26 20 c-22 17 -41 21 -106 21 l-79 0 3 87 3 88 685 582 c377 321 687 583 690 583 3 0 226 -187 495 -416z m-1305 57 l0 -170 -102 -88 c-57 -49 -109 -93 -115 -97 -10 -6 -13 49 -13 258 l0 266 115 0 115 0 0 -169z m442 -1307 c60 -42 88 -95 88 -167 0 -99 -52 -169 -147 -197 -166 -49 -313 132 -234 288 38 75 107 113 194 109 44 -3 67 -10 99 -33z m926 21 c77 -33 125 -106 124 -191 -1 -170 -192 -261 -330 -157 -97 73 -97 243 1 317 18 14 44 29 57 35 38 15 106 13 148 -4z m-866 -547 c32 -15 80 -48 109 -74 100 -95 139 -196 139 -365 l0 -109 -410 0 -410 0 0 95 c0 51 5 118 11 147 31 149 132 267 272 319 77 29 212 22 289 -13z m941 -1 c74 -33 165 -124 199 -197 35 -75 48 -144 48 -255 l0 -95 -410 0 -410 0 0 108 c0 160 31 252 118 344 89 95 173 129 307 125 71 -3 102 -9 148 -30z"/> <path d="M1349 2346 c-214 -75 -347 -293 -311 -511 38 -232 229 -395 462 -395 344 0 568 353 422 663 -101 214 -353 321 -573 243z m298 -126 c244 -111 274 -450 52 -602 -76 -53 -170 -75 -251 -60 -122 23 -216 93 -266 200 -23 49 -27 70 -27 147 0 76 4 98 26 145 84 178 286 252 466 170z"/> <path d="M1567 2048 c-14 -18 -41 -59 -62 -90 -21 -32 -40 -58 -42 -58 -2 0 -16 14 -30 30 -41 50 -105 35 -105 -24 0 -13 23 -58 51 -100 49 -72 55 -77 84 -74 28 3 40 15 100 103 112 164 120 180 106 207 -26 49 -68 52 -102 6z"/> </g> </svg> 