 <svg  version="1.0" xmlns="http://www.w3.org/2000/svg"  width="300.000000pt" height="300.000000pt" viewBox="0 0 300.000000 300.000000"  preserveAspectRatio="xMidYMid meet">  <g transform="translate(0.000000,300.000000) scale(0.100000,-0.100000)" fill="#0078c2" stroke="none"> <path d="M1318 2971 c-121 -39 -231 -123 -304 -232 -50 -76 -94 -196 -94 -258 0 -37 -4 -42 -69 -90 -81 -60 -201 -184 -254 -262 -37 -54 -41 -57 -89 -62 -188 -23 -356 -144 -444 -322 -36 -72 -46 -104 -50 -160 l-5 -70 20 24 21 23 0 -73 0 -74 -20 25 -20 25 0 -46 c-1 -162 141 -368 311 -452 342 -168 739 16 834 388 75 296 -123 625 -420 696 -27 6 -56 13 -63 15 -19 6 68 113 158 195 41 38 78 69 82 69 3 0 12 -24 18 -52 37 -157 156 -309 294 -380 163 -83 363 -88 521 -14 158 74 301 253 322 402 3 25 9 47 13 49 10 6 190 -165 227 -217 l32 -45 -65 -16 c-201 -50 -350 -190 -420 -397 -28 -83 -26 -252 4 -347 57 -184 221 -339 409 -388 75 -20 219 -19 297 1 133 34 261 127 340 246 49 73 86 179 86 247 l0 53 -20 -23 -19 -24 -1 64 c0 63 0 64 20 46 20 -18 20 -17 20 31 -1 107 -90 280 -189 364 -86 74 -238 140 -322 140 -30 0 -41 5 -50 23 -44 83 -180 228 -281 300 -64 46 -65 48 -71 99 -21 207 -186 407 -394 477 -65 22 -184 30 -150 10 27 -16 20 -25 -23 -27 -50 -3 -65 4 -49 24 17 21 -71 18 -143 -5z m313 -77 c81 -24 140 -57 202 -114 165 -151 210 -386 111 -588 -57 -116 -190 -224 -318 -258 -83 -22 -209 -18 -288 10 -285 101 -416 420 -284 691 59 120 186 225 315 261 66 18 197 17 262 -2z m469 -526 c0 -5 -4 -7 -9 -4 -5 3 -14 -1 -21 -9 -7 -8 -19 -15 -27 -15 -12 0 -14 7 -9 31 3 17 6 39 6 47 0 11 8 8 30 -13 17 -16 30 -33 30 -37z m-1140 5 c0 -44 -1 -45 -18 -30 -10 10 -24 17 -30 17 -18 0 -15 11 10 37 31 33 38 29 38 -24z m1460 -337 c0 -3 -17 -6 -39 -6 l-38 0 16 33 16 33 22 -27 c13 -15 23 -30 23 -33z m-1770 -1 c2 -9 -60 -8 -69 1 -3 2 6 15 19 29 l24 26 12 -23 c7 -13 13 -27 14 -33z m94 -76 c160 -54 290 -197 326 -360 18 -80 8 -220 -20 -292 -66 -172 -243 -301 -430 -314 -95 -7 -171 9 -259 53 -164 82 -271 255 -271 439 0 140 46 250 147 353 134 135 325 181 507 121z m1768 20 c84 -18 173 -65 242 -129 199 -187 210 -499 24 -696 -103 -109 -210 -156 -358 -158 -146 -1 -237 35 -345 135 -50 47 -75 81 -108 147 l-42 85 0 121 c0 142 19 205 88 297 121 162 311 237 499 198z"/> <path d="M1396 2804 c-67 -21 -156 -110 -179 -178 -21 -63 -22 -149 -1 -210 9 -27 37 -70 66 -101 l50 -55 -4 -110 -3 -110 178 0 178 0 -2 114 -2 115 36 40 c65 72 82 115 82 211 0 69 -4 93 -23 127 -56 107 -143 164 -256 170 -45 2 -89 -3 -120 -13z m205 -97 c24 -13 58 -43 74 -66 27 -39 30 -50 30 -120 0 -68 -3 -83 -27 -119 -117 -176 -392 -94 -392 118 0 84 43 153 119 193 47 25 143 22 196 -6z m41 -431 c-16 -43 -16 -44 -39 -27 -12 9 -23 18 -23 21 0 3 17 15 38 26 20 12 38 22 38 23 1 1 -6 -19 -14 -43z m-234 1 c10 -8 9 -14 -4 -28 -23 -25 -31 -24 -38 5 -3 13 -9 32 -12 41 -6 15 -4 16 17 5 13 -7 30 -17 37 -23z m182 -99 l0 -48 -90 0 -90 0 0 48 0 47 90 0 90 0 0 -47z m32 -90 c-6 -6 -15 -7 -22 -3 -8 5 -6 13 7 27 16 18 18 19 21 3 2 -9 -1 -22 -6 -27z m-223 18 c8 -10 9 -16 1 -21 -13 -8 -30 3 -30 21 0 18 14 18 29 0z"/> <path d="M476 1708 c-67 -12 -169 -60 -234 -109 l-54 -41 33 -34 32 -33 40 35 c141 128 404 137 557 21 24 -18 49 -36 56 -42 10 -7 22 -1 44 20 l32 30 -37 32 c-119 103 -308 152 -469 121z"/> <path d="M492 1534 c-60 -16 -103 -37 -150 -72 l-33 -25 32 -33 32 -33 36 29 c99 78 255 78 351 1 l37 -30 32 33 32 33 -33 25 c-50 38 -107 64 -166 77 -68 14 -104 13 -170 -5z"/> <path d="M525 1366 c-22 -7 -53 -21 -68 -31 l-28 -18 32 -33 31 -32 32 19 c40 24 82 24 122 0 l32 -19 32 33 31 32 -33 21 c-34 21 -101 42 -128 41 -8 0 -33 -6 -55 -13z"/> <path d="M2354 1759 c-77 -91 -130 -179 -154 -257 -33 -107 -22 -174 42 -246 117 -134 328 -92 394 79 41 108 -25 270 -182 448 l-41 46 -59 -70z m79 -17 c16 -17 15 -18 -18 -18 -33 0 -34 1 -18 18 9 10 17 18 18 18 1 0 9 -8 18 -18z m30 -108 c57 -80 97 -172 97 -225 0 -109 -113 -180 -210 -131 -73 36 -98 118 -65 212 19 55 125 214 134 203 4 -4 24 -31 44 -59z"/> <path d="M1122 1038 l-378 -378 93 0 93 0 0 -330 c0 -323 0 -330 20 -330 17 0 20 7 20 39 0 48 11 57 35 31 16 -18 31 -20 167 -20 135 0 150 2 168 20 25 25 32 25 55 0 15 -17 31 -20 103 -20 74 0 89 3 108 21 l23 21 27 -21 c24 -19 39 -21 177 -21 141 0 152 1 174 22 l23 21 0 -24 c0 -39 11 -69 26 -69 10 0 14 37 16 175 l3 175 -45 0 -45 0 3 -130 3 -130 -158 0 -158 0 3 220 3 220 -181 0 -181 0 3 -220 3 -220 -152 0 -153 0 0 285 0 285 47 0 48 0 192 192 193 193 193 -193 192 -192 53 0 54 0 -4 -110 -3 -110 43 0 42 0 0 110 0 109 93 3 92 3 -378 375 -377 375 -378 -377z m658 -23 c148 -148 270 -270 270 -270 0 -1 -30 1 -67 3 l-68 4 -207 206 -208 207 -207 -207 -208 -206 -68 -4 -68 -4 273 273 c150 150 276 272 280 271 4 -2 129 -124 278 -273z m-847 -245 c-7 -27 23 -60 54 -60 28 0 30 -21 5 -43 -17 -16 -20 -15 -42 8 -14 15 -35 25 -51 25 -42 0 -44 17 -6 55 40 40 47 43 40 15z m1174 -12 c40 -39 42 -58 7 -58 -14 0 -39 -9 -55 -21 -29 -20 -31 -20 -49 -4 -22 20 -18 35 9 35 26 0 55 36 48 60 -7 28 2 25 40 -12z m-703 -277 c3 -4 -3 -16 -14 -26 -19 -17 -20 -17 -20 2 0 29 22 45 34 24z m225 -22 c3 -24 3 -24 -18 -5 -11 10 -18 23 -15 28 10 16 29 2 33 -23z m-39 -194 l0 -175 -90 0 -90 0 0 175 0 175 90 0 90 0 0 -175z"/> </g> </svg> 