 <svg  version="1.0" xmlns="http://www.w3.org/2000/svg"  width="300.000000pt" height="300.000000pt" viewBox="0 0 300.000000 300.000000"  preserveAspectRatio="xMidYMid meet">  <g transform="translate(0.000000,300.000000) scale(0.100000,-0.100000)" fill="#007ecc" stroke="none"> <path d="M1328 2970 c-26 -27 -30 -36 -25 -69 l5 -39 -212 -5 c-168 -4 -227 -9 -291 -25 -382 -98 -671 -386 -775 -772 -21 -78 -23 -112 -28 -397 l-4 -313 30 -30 c32 -32 54 -36 97 -20 50 19 55 53 55 353 0 257 2 281 24 369 66 258 233 461 477 577 138 66 178 74 416 79 l211 4 -5 -39 c-4 -31 0 -43 21 -66 22 -24 33 -28 68 -25 39 3 47 9 106 78 78 93 96 124 87 158 -3 14 -35 62 -71 107 -90 113 -131 130 -186 75z"/> <path d="M2880 2993 c-8 -3 -111 -100 -227 -216 l-212 -211 -99 97 c-89 87 -103 97 -136 97 -51 0 -86 -36 -86 -87 0 -35 10 -47 144 -182 144 -144 145 -144 183 -138 33 6 69 37 295 265 233 232 258 261 258 291 0 59 -64 104 -120 84z"/> <path d="M1368 2315 c-32 -18 -48 -44 -48 -79 l0 -26 -161 0 -161 0 -29 -29 -29 -30 2 -646 3 -647 28 -24 28 -24 784 0 783 0 31 26 31 26 0 648 0 648 -31 26 c-30 26 -33 26 -188 26 l-157 0 -10 43 c-7 33 -16 46 -44 61 -33 17 -38 17 -72 3 -32 -13 -40 -23 -50 -61 l-12 -46 -98 0 -98 0 0 29 c0 17 -10 42 -24 57 -48 57 -146 22 -146 -53 l0 -33 -99 0 -99 0 -6 33 c-12 63 -77 100 -128 72z m-48 -304 c0 -28 37 -69 69 -76 43 -9 87 17 101 60 l12 35 99 0 c98 0 99 0 99 -24 0 -30 52 -76 87 -76 30 0 83 50 83 79 0 20 5 21 98 21 l98 0 13 -35 c15 -43 60 -69 102 -60 32 7 69 48 69 76 0 17 9 19 105 19 l105 0 0 -520 0 -520 -670 0 -670 0 0 520 0 520 100 0 c91 0 100 -2 100 -19z"/> <path d="M1359 1697 c-44 -34 -49 -83 -13 -126 35 -42 84 -43 125 -2 36 36 37 70 3 110 -20 24 -34 31 -62 31 -21 0 -44 -6 -53 -13z"/> <path d="M1725 1685 c-17 -16 -25 -35 -25 -60 0 -25 8 -44 25 -60 55 -56 145 -16 145 64 0 31 -6 44 -26 60 -37 29 -89 27 -119 -4z"/> <path d="M2102 1687 c-51 -54 -12 -147 61 -147 76 0 115 93 62 145 -33 34 -93 34 -123 2z"/> <path d="M1363 1321 c-52 -33 -53 -109 -1 -145 69 -49 160 27 127 106 -11 28 -54 58 -81 58 -7 0 -27 -9 -45 -19z"/> <path d="M1754 1330 c-30 -12 -54 -49 -54 -83 0 -34 48 -87 80 -87 51 0 89 38 90 91 0 58 -63 101 -116 79z"/> <path d="M2140 1333 c-50 -19 -74 -76 -54 -128 8 -19 55 -45 84 -45 33 0 80 53 80 89 0 53 -64 102 -110 84z"/> <path d="M2853 1676 l-28 -24 -6 -314 c-7 -356 -9 -370 -89 -533 -86 -177 -216 -308 -395 -396 -152 -74 -188 -82 -430 -86 l-211 -5 4 41 c5 52 -30 91 -82 91 -40 0 -60 -16 -136 -109 -87 -107 -86 -118 11 -240 87 -109 121 -123 179 -74 29 24 32 31 27 69 l-4 42 211 5 c168 4 227 9 291 25 334 85 616 334 733 645 59 159 64 195 69 510 3 159 2 299 -1 312 -16 63 -92 85 -143 41z"/> <path d="M404 1316 c-24 -20 -28 -32 -32 -89 l-4 -65 -42 -16 c-57 -22 -111 -68 -144 -124 -23 -40 -27 -58 -27 -122 1 -143 44 -188 267 -279 87 -35 169 -74 182 -86 56 -52 39 -128 -36 -166 -35 -18 -54 -21 -112 -17 -79 5 -128 26 -195 82 -24 20 -51 36 -61 36 -65 0 -109 -57 -90 -116 17 -51 102 -115 205 -153 l50 -19 5 -58 c7 -72 21 -99 60 -112 69 -24 120 25 120 116 l0 49 46 13 c46 13 122 64 156 104 57 68 77 177 49 260 -18 51 -93 132 -151 161 -25 13 -97 44 -159 69 -152 61 -161 67 -161 115 0 50 39 86 104 95 57 9 113 -6 198 -52 l66 -36 36 17 c43 20 61 58 49 102 -11 38 -95 97 -174 122 l-57 18 -4 64 c-4 54 -8 67 -32 87 -15 13 -40 24 -56 24 -16 0 -41 -11 -56 -24z"/> </g> </svg> 