<!DOCTYPE svg PUBLIC "-//W3C//DTD SVG 1.1//EN" "http://www.w3.org/Graphics/SVG/1.1/DTD/svg11.dtd">
<!-- Uploaded to: SVG Repo, www.svgrepo.com, Transformed by: SVG Repo Mixer Tools -->
<svg fill="#0078b9" height="800px" width="800px" version="1.1" id="Layer_1" xmlns="http://www.w3.org/2000/svg" xmlns:xlink="http://www.w3.org/1999/xlink" viewBox="0 0 512 512" xml:space="preserve">
<g id="SVGRepo_bgCarrier" stroke-width="0"/>
<g id="SVGRepo_tracerCarrier" stroke-linecap="round" stroke-linejoin="round"/>
<g id="SVGRepo_iconCarrier"> <g> <g> <path d="M491.721,53.442V0H20.279v53.442H0V512h192.612h126.776H512V53.442H491.721z M50.696,30.417h410.607v23.025H50.696V30.417 z M288.971,481.583h-65.942V357.693h65.942V481.583z M481.583,481.583H319.388V327.276H192.612v154.307H30.417V83.859h451.166 V481.583z"/> </g> </g> <g> <g> <path d="M50.698,104.14v96.356h126.776V104.14H50.698z M147.057,170.079H81.116v-35.521h65.942V170.079z"/> </g> </g> <g> <g> <path d="M192.612,104.14v96.356h126.776V104.14H192.612z M288.971,170.079h-65.942v-35.521h65.942V170.079z"/> </g> </g> <g> <g> <path d="M334.526,104.14v96.356h126.776V104.14H334.526z M430.884,170.079h-65.941v-35.521h65.941V170.079z"/> </g> </g> <g> <g> <path d="M50.698,215.708v96.356h126.776v-96.356H50.698z M147.057,281.646H81.116v-35.521h65.942V281.646z"/> </g> </g> <g> <g> <path d="M192.612,215.708v96.356h126.776v-96.356H192.612z M288.971,281.646h-65.942v-35.521h65.942V281.646z"/> </g> </g> <g> <g> <path d="M334.526,215.708v96.356h126.776v-96.356H334.526z M430.884,281.646h-65.941v-35.521h65.941V281.646z"/> </g> </g> <g> <g> <path d="M50.698,327.275v96.356h126.776v-96.356H50.698z M147.057,393.214H81.116v-35.521h65.942V393.214z"/> </g> </g> <g> <g> <path d="M334.526,327.275v96.356h126.776v-96.356H334.526z M430.884,393.214h-65.941v-35.521h65.941V393.214z"/> </g> </g> </g>
</svg>