<?xml version="1.0" standalone="no"?>
<!DOCTYPE svg PUBLIC "-//W3C//DTD SVG 20010904//EN"
 "http://www.w3.org/TR/2001/REC-SVG-20010904/DTD/svg10.dtd">
<svg version="1.0" xmlns="http://www.w3.org/2000/svg"
 width="300.000000pt" height="300.000000pt" viewBox="0 0 300.000000 300.000000"
 preserveAspectRatio="xMidYMid meet">
<metadata>
Created by potrace 1.10, written by Peter Selinger 2001-2011
</metadata>
<g transform="translate(0.000000,300.000000) scale(0.100000,-0.100000)"
fill="#000000" stroke="none">
<path d="M40 2994 c0 -5 986 -1443 1096 -1600 l43 -61 -571 -664 -572 -664
129 -3 c70 -1 129 -1 130 0 14 20 987 1148 993 1152 5 3 188 -255 407 -574
l399 -580 433 0 c238 0 433 3 433 6 0 3 -28 47 -63 98 -35 50 -301 436 -591
858 l-527 768 523 607 c288 334 534 620 546 635 l24 28 -130 0 -129 0 -449
-522 c-247 -287 -461 -536 -475 -552 l-25 -29 -336 489 c-184 269 -355 517
-379 552 l-43 62 -433 0 c-238 0 -433 -3 -433 -6z m742 -197 c9 -6 409 -574
888 -1262 480 -687 888 -1271 907 -1297 l35 -48 -200 0 -199 0 -911 1302
c-500 717 -908 1306 -906 1309 8 13 370 9 386 -4z"/>
</g>
</svg>
